{
  "accessors": [
    {
      "bufferView": 2,
      "componentType": 5126,
      "count": 65532,
      "max": [
        7.509249210357666,
        13.72761058807373,
        5.638731956481934
      ],
      "min": [
        -8.117929458618164,
        -5.921092987060547,
        -11.540789604187012
      ],
      "type": "VEC3"
    },
    {
      "bufferView": 2,
      "byteOffset": 786384,
      "componentType": 5126,
      "count": 65532,
      "max": [
        0.9999960660934448,
        0.9999896883964539,
        0.9999998211860657
      ],
      "min": [
        -0.9999995231628418,
        -0.9999973177909851,
        -0.9999983310699463
      ],
      "type": "VEC3"
    },
    {
      "bufferView": 1,
      "componentType": 5126,
      "count": 65532,
      "max": [
        0.9999780058860779,
        0.9999859929084778
      ],
      "min": [
        0.0,
        1.2000000424450263e-05
      ],
      "type": "VEC2"
    },
    {
      "bufferView": 0,
      "componentType": 5125,
      "count": 289065,
      "type": "SCALAR"
    },
    {
      "bufferView": 2,
      "byteOffset": 1572768,
      "componentType": 5126,
      "count": 65532,
      "max": [
        7.597405910491943,
        11.640481948852539,
        7.110925197601318
      ],
      "min": [
        -8.22868824005127,
        -5.9461798667907715,
        -11.496246337890625
      ],
      "type": "VEC3"
    },
    {
      "bufferView": 2,
      "byteOffset": 2359152,
      "componentType": 5126,
      "count": 65532,
      "max": [
        0.9999969005584717,
        0.9999998807907104,
        0.9999997615814209
      ],
      "min": [
        -0.9999973773956299,
        -0.9999998807907104,
        -0.9999992251396179
      ],
      "type": "VEC3"
    },
    {
      "bufferView": 1,
      "byteOffset": 524256,
      "componentType": 5126,
      "count": 65532,
      "max": [
        0.9997280240058899,
        0.9988530278205872
      ],
      "min": [
        0.0006580000044777989,
        0.0005489999894052744
      ],
      "type": "VEC2"
    },
    {
      "bufferView": 0,
      "byteOffset": 1156260,
      "componentType": 5125,
      "count": 330627,
      "type": "SCALAR"
    },
    {
      "bufferView": 2,
      "byteOffset": 3145536,
      "componentType": 5126,
      "count": 65532,
      "max": [
        8.392069816589355,
        13.831787109375,
        7.131284236907959
      ],
      "min": [
        -8.0862455368042,
        -5.922820091247559,
        -11.538890838623047
      ],
      "type": "VEC3"
    },
    {
      "bufferView": 2,
      "byteOffset": 3931920,
      "componentType": 5126,
      "count": 65532,
      "max": [
        0.9999994039535522,
        0.9999998211860657,
        0.9999998807907104
      ],
      "min": [
        -0.9999997615814209,
        -0.9999973773956299,
        -1.0
      ],
      "type": "VEC3"
    },
    {
      "bufferView": 1,
      "byteOffset": 1048512,
      "componentType": 5126,
      "count": 65532,
      "max": [
        0.992376983165741,
        0.997527003288269
      ],
      "min": [
        0.00785099994391203,
        0.0015279999934136868
      ],
      "type": "VEC2"
    },
    {
      "bufferView": 0,
      "byteOffset": 2478768,
      "componentType": 5125,
      "count": 340683,
      "type": "SCALAR"
    },
    {
      "bufferView": 2,
      "byteOffset": 4718304,
      "componentType": 5126,
      "count": 65532,
      "max": [
        7.586357116699219,
        11.257769584655762,
        5.717101097106934
      ],
      "min": [
        -7.868377208709717,
        -5.90736722946167,
        -11.462928771972656
      ],
      "type": "VEC3"
    },
    {
      "bufferView": 2,
      "byteOffset": 5504688,
      "componentType": 5126,
      "count": 65532,
      "max": [
        0.9999973177909851,
        0.9999969005584717,
        0.9999997019767761
      ],
      "min": [
        -0.9999999403953552,
        -0.9996649026870728,
        -0.9999999403953552
      ],
      "type": "VEC3"
    },
    {
      "bufferView": 1,
      "byteOffset": 1572768,
      "componentType": 5126,
      "count": 65532,
      "max": [
        0.994454026222229,
        0.9987239837646484
      ],
      "min": [
        0.008344000205397606,
        0.004550000187009573
      ],
      "type": "VEC2"
    },
    {
      "bufferView": 0,
      "byteOffset": 3841500,
      "componentType": 5125,
      "count": 340773,
      "type": "SCALAR"
    },
    {
      "bufferView": 2,
      "byteOffset": 6291072,
      "componentType": 5126,
      "count": 65532,
      "max": [
        8.06360912322998,
        13.716004371643066,
        7.123198986053467
      ],
      "min": [
        -8.121406555175781,
        -0.19877399504184723,
        -0.3996039927005768
      ],
      "type": "VEC3"
    },
    {
      "bufferView": 2,
      "byteOffset": 7077456,
      "componentType": 5126,
      "count": 65532,
      "max": [
        0.999998152256012,
        0.9999977946281433,
        0.999962568283081
      ],
      "min": [
        -0.9999991655349731,
        -0.9999991059303284,
        -0.9999998807907104
      ],
      "type": "VEC3"
    },
    {
      "bufferView": 1,
      "byteOffset": 2097024,
      "componentType": 5126,
      "count": 65532,
      "max": [
        0.9993789792060852,
        0.9997249841690063
      ],
      "min": [
        0.0004130000015720725,
        0.002068999921903014
      ],
      "type": "VEC2"
    },
    {
      "bufferView": 0,
      "byteOffset": 5204592,
      "componentType": 5125,
      "count": 337971,
      "type": "SCALAR"
    },
    {
      "bufferView": 2,
      "byteOffset": 7863840,
      "componentType": 5126,
      "count": 65532,
      "max": [
        7.451278209686279,
        13.660630226135254,
        5.629773139953613
      ],
      "min": [
        -8.10560417175293,
        -0.9210019707679749,
        -10.418320655822754
      ],
      "type": "VEC3"
    },
    {
      "bufferView": 2,
      "byteOffset": 8650224,
      "componentType": 5126,
      "count": 65532,
      "max": [
        0.9999999403953552,
        0.9999942779541016,
        0.9999992847442627
      ],
      "min": [
        -0.9999998211860657,
        -0.9999992847442627,
        -0.9999986290931702
      ],
      "type": "VEC3"
    },
    {
      "bufferView": 1,
      "byteOffset": 2621280,
      "componentType": 5126,
      "count": 65532,
      "max": [
        0.9994789958000183,
        0.9992870092391968
      ],
      "min": [
        0.0005329999839887023,
        2.499999936844688e-05
      ],
      "type": "VEC2"
    },
    {
      "bufferView": 0,
      "byteOffset": 6556476,
      "componentType": 5125,
      "count": 308904,
      "type": "SCALAR"
    },
    {
      "bufferView": 2,
      "byteOffset": 9436608,
      "componentType": 5126,
      "count": 65532,
      "max": [
        8.320070266723633,
        13.832633972167969,
        7.037211894989014
      ],
      "min": [
        -8.2156400680542,
        -5.855278968811035,
        -11.493487358093262
      ],
      "type": "VEC3"
    },
    {
      "bufferView": 2,
      "byteOffset": 10222992,
      "componentType": 5126,
      "count": 65532,
      "max": [
        0.999995231628418,
        0.9999896883964539,
        0.9999996423721313
      ],
      "min": [
        -1.0,
        -0.9999999403953552,
        -0.9999889731407166
      ],
      "type": "VEC3"
    },
    {
      "bufferView": 1,
      "byteOffset": 3145536,
      "componentType": 5126,
      "count": 65532,
      "max": [
        0.999705970287323,
        0.9988390207290649
      ],
      "min": [
        0.0005239999736659229,
        0.0012799999676644802
      ],
      "type": "VEC2"
    },
    {
      "bufferView": 0,
      "byteOffset": 7792092,
      "componentType": 5125,
      "count": 334461,
      "type": "SCALAR"
    },
    {
      "bufferView": 2,
      "byteOffset": 11009376,
      "componentType": 5126,
      "count": 65532,
      "max": [
        7.452042102813721,
        13.837433815002441,
        5.667140007019043
      ],
      "min": [
        -7.9544219970703125,
        -5.944246768951416,
        -11.39598274230957
      ],
      "type": "VEC3"
    },
    {
      "bufferView": 2,
      "byteOffset": 11795760,
      "componentType": 5126,
      "count": 65532,
      "max": [
        0.9999994039535522,
        0.9999993443489075,
        0.9999989867210388
      ],
      "min": [
        -1.0,
        -1.0,
        -0.999999463558197
      ],
      "type": "VEC3"
    },
    {
      "bufferView": 1,
      "byteOffset": 3669792,
      "componentType": 5126,
      "count": 65532,
      "max": [
        0.9998409748077393,
        0.9984009861946106
      ],
      "min": [
        1.700000029813964e-05,
        0.0005489999894052744
      ],
      "type": "VEC2"
    },
    {
      "bufferView": 0,
      "byteOffset": 9129936,
      "componentType": 5125,
      "count": 298806,
      "type": "SCALAR"
    },
    {
      "bufferView": 2,
      "byteOffset": 12582144,
      "componentType": 5126,
      "count": 65533,
      "max": [
        8.370699882507324,
        13.831787109375,
        7.111476898193359
      ],
      "min": [
        -8.129719734191895,
        -5.918519020080566,
        -11.496246337890625
      ],
      "type": "VEC3"
    },
    {
      "bufferView": 2,
      "byteOffset": 13368540,
      "componentType": 5126,
      "count": 65533,
      "max": [
        0.9999973177909851,
        0.9999963045120239,
        0.9999995231628418
      ],
      "min": [
        -0.9999990463256836,
        -0.9999967217445374,
        -0.9999997615814209
      ],
      "type": "VEC3"
    },
    {
      "bufferView": 1,
      "byteOffset": 4194048,
      "componentType": 5126,
      "count": 65533,
      "max": [
        0.9999769926071167,
        0.9996140003204346
      ],
      "min": [
        0.00013299999409355223,
        0.0011020000092685223
      ],
      "type": "VEC2"
    },
    {
      "bufferView": 0,
      "byteOffset": 10325160,
      "componentType": 5125,
      "count": 209628,
      "type": "SCALAR"
    },
    {
      "bufferView": 2,
      "byteOffset": 14154936,
      "componentType": 5126,
      "count": 65532,
      "max": [
        7.458921909332275,
        13.813397407531738,
        5.670360088348389
      ],
      "min": [
        -8.260228157043457,
        -5.859617233276367,
        -11.4968843460083
      ],
      "type": "VEC3"
    },
    {
      "bufferView": 2,
      "byteOffset": 14941320,
      "componentType": 5126,
      "count": 65532,
      "max": [
        0.9999966621398926,
        0.9999648332595825,
        0.9999997615814209
      ],
      "min": [
        -1.0,
        -0.9999975562095642,
        -0.9999920129776001
      ],
      "type": "VEC3"
    },
    {
      "bufferView": 1,
      "byteOffset": 4718312,
      "componentType": 5126,
      "count": 65532,
      "max": [
        0.9998599886894226,
        0.999584972858429
      ],
      "min": [
        6.000000212225132e-06,
        0.00037200000951997936
      ],
      "type": "VEC2"
    },
    {
      "bufferView": 0,
      "byteOffset": 11163672,
      "componentType": 5125,
      "count": 223866,
      "type": "SCALAR"
    },
    {
      "bufferView": 2,
      "byteOffset": 15727704,
      "componentType": 5126,
      "count": 22986,
      "max": [
        7.421749114990234,
        13.49264907836914,
        4.035664081573486
      ],
      "min": [
        -8.083636283874512,
        -0.6025140285491943,
        -8.065455436706543
      ],
      "type": "VEC3"
    },
    {
      "bufferView": 2,
      "byteOffset": 16003536,
      "componentType": 5126,
      "count": 22986,
      "max": [
        0.999994158744812,
        0.9999895095825195,
        0.999983012676239
      ],
      "min": [
        -0.999970018863678,
        -0.9999997019767761,
        -0.999995768070221
      ],
      "type": "VEC3"
    },
    {
      "bufferView": 1,
      "byteOffset": 5242568,
      "componentType": 5126,
      "count": 22986,
      "max": [
        0.9997490048408508,
        0.9995959997177124
      ],
      "min": [
        5.500000042957254e-05,
        4.999999873689376e-06
      ],
      "type": "VEC2"
    },
    {
      "bufferView": 0,
      "byteOffset": 12059136,
      "componentType": 5125,
      "count": 69066,
      "type": "SCALAR"
    }
  ],
  "asset": {
    "extras": {
      "author": "artfletch (https://sketchfab.com/artfletch)",
      "license": "CC-BY-4.0 (http://creativecommons.org/licenses/by/4.0/)",
      "source": "https://sketchfab.com/3d-models/barts-hogarth-stair-c0b72a0e7fd449d38629b8d8d0cc7743",
      "title": "Barts Hogarth Stair"
    },
    "generator": "Sketchfab-12.67.0",
    "version": "2.0"
  },
  "bufferViews": [
    {
      "buffer": 0,
      "byteLength": 12335400,
      "name": "floatBufferViews",
      "target": 34963
    },
    {
      "buffer": 0,
      "byteLength": 5426456,
      "byteOffset": 12335400,
      "byteStride": 8,
      "name": "floatBufferViews",
      "target": 34962
    },
    {
      "buffer": 0,
      "byteLength": 16279368,
      "byteOffset": 17761856,
      "byteStride": 12,
      "name": "floatBufferViews",
      "target": 34962
    }
  ],
  "buffers": [
    {
      "byteLength": 34041224,
      "uri": "scene.bin"
    }
  ],
  "extensionsUsed": [
    "KHR_materials_unlit"
  ],
  "images": [
    {
      "uri": "textures/StBartsMuseumStairwell03_StBartsMuseumStairwell03_baseColor.jpeg"
    }
  ],
  "materials": [
    {
      "extensions": {
        "KHR_materials_unlit": {}
      },
      "name": "StBartsMuseumStairwell03_StBartsMuseumStairwell03",
      "pbrMetallicRoughness": {
        "baseColorTexture": {
          "index": 0
        },
        "metallicFactor": 0.0
      }
    }
  ],
  "meshes": [
    {
      "name": "Object_0",
      "primitives": [
        {
          "attributes": {
            "NORMAL": 1,
            "POSITION": 0,
            "TEXCOORD_0": 2
          },
          "indices": 3,
          "material": 0,
          "mode": 4
        }
      ]
    },
    {
      "name": "Object_1",
      "primitives": [
        {
          "attributes": {
            "NORMAL": 5,
            "POSITION": 4,
            "TEXCOORD_0": 6
          },
          "indices": 7,
          "material": 0,
          "mode": 4
        }
      ]
    },
    {
      "name": "Object_2",
      "primitives": [
        {
          "attributes": {
            "NORMAL": 9,
            "POSITION": 8,
            "TEXCOORD_0": 10
          },
          "indices": 11,
          "material": 0,
          "mode": 4
        }
      ]
    },
    {
      "name": "Object_3",
      "primitives": [
        {
          "attributes": {
            "NORMAL": 13,
            "POSITION": 12,
            "TEXCOORD_0": 14
          },
          "indices": 15,
          "material": 0,
          "mode": 4
        }
      ]
    },
    {
      "name": "Object_4",
      "primitives": [
        {
          "attributes": {
            "NORMAL": 17,
            "POSITION": 16,
            "TEXCOORD_0": 18
          },
          "indices": 19,
          "material": 0,
          "mode": 4
        }
      ]
    },
    {
      "name": "Object_5",
      "primitives": [
        {
          "attributes": {
            "NORMAL": 21,
            "POSITION": 20,
            "TEXCOORD_0": 22
          },
          "indices": 23,
          "material": 0,
          "mode": 4
        }
      ]
    },
    {
      "name": "Object_6",
      "primitives": [
        {
          "attributes": {
            "NORMAL": 25,
            "POSITION": 24,
            "TEXCOORD_0": 26
          },
          "indices": 27,
          "material": 0,
          "mode": 4
        }
      ]
    },
    {
      "name": "Object_7",
      "primitives": [
        {
          "attributes": {
            "NORMAL": 29,
            "POSITION": 28,
            "TEXCOORD_0": 30
          },
          "indices": 31,
          "material": 0,
          "mode": 4
        }
      ]
    },
    {
      "name": "Object_8",
      "primitives": [
        {
          "attributes": {
            "NORMAL": 33,
            "POSITION": 32,
            "TEXCOORD_0": 34
          },
          "indices": 35,
          "material": 0,
          "mode": 4
        }
      ]
    },
    {
      "name": "Object_9",
      "primitives": [
        {
          "attributes": {
            "NORMAL": 37,
            "POSITION": 36,
            "TEXCOORD_0": 38
          },
          "indices": 39,
          "material": 0,
          "mode": 4
        }
      ]
    },
    {
      "name": "Object_10",
      "primitives": [
        {
          "attributes": {
            "NORMAL": 41,
            "POSITION": 40,
            "TEXCOORD_0": 42
          },
          "indices": 43,
          "material": 0,
          "mode": 4
        }
      ]
    }
  ],
  "nodes": [
    {
      "children": [
        1
      ],
      "matrix": [
        0.5555555820465088,
        0.0,
        0.0,
        0.0,
        0.0,
        -0.5555555820465088,
        -2.467162394588257e-16,
        0.0,
        0.0,
        2.467162394588257e-16,
        -0.5555555820465088,
        0.0,
        0.0,
        1.7408497333526625,
        -6.150371074676514,
        1.0
      ],
      "name": "Sketchfab_model"
    },
    {
      "children": [
        2,
        3,
        4,
        5,
        6,
        7,
        8,
        9,
        10,
        11,
        12
      ],
      "name": "StBartsMuseumStairwell02.obj.cleaner.materialmerger.gles"
    },
    {
      "mesh": 0,
      "name": "Object_2"
    },
    {
      "mesh": 1,
      "name": "Object_3"
    },
    {
      "mesh": 2,
      "name": "Object_4"
    },
    {
      "mesh": 3,
      "name": "Object_5"
    },
    {
      "mesh": 4,
      "name": "Object_6"
    },
    {
      "mesh": 5,
      "name": "Object_7"
    },
    {
      "mesh": 6,
      "name": "Object_8"
    },
    {
      "mesh": 7,
      "name": "Object_9"
    },
    {
      "mesh": 8,
      "name": "Object_10"
    },
    {
      "mesh": 9,
      "name": "Object_11"
    },
    {
      "mesh": 10,
      "name": "Object_12"
    }
  ],
  "samplers": [
    {
      "magFilter": 9729,
      "minFilter": 9987,
      "wrapS": 10497,
      "wrapT": 10497
    }
  ],
  "scene": 0,
  "scenes": [
    {
      "name": "Sketchfab_Scene",
      "nodes": [
        0
      ]
    }
  ],
  "textures": [
    {
      "sampler": 0,
      "source": 0
    }
  ]
}
